<?xml version="1.0" encoding="UTF-8"?>
<!DOCTYPE svg PUBLIC "-//W3C//DTD SVG 1.1//EN" "http://www.w3.org/Graphics/SVG/1.1/DTD/svg11.dtd">
<svg version="1.1" xmlns="http://www.w3.org/2000/svg" xmlns:xlink="http://www.w3.org/1999/xlink" x="0" y="0" width="1156.347" height="292.537" viewBox="0, 0, 1156.347, 292.537">
  <g id="layer1">
    <path d="M943.667,247.4 C943.667,244.439 937.855,242.039 930.686,242.039 C923.518,242.039 917.706,244.439 917.706,247.4 C917.706,250.36 923.518,252.76 930.686,252.76 C937.855,252.76 943.667,250.36 943.667,247.4" fill="#181919" id="path186720"/>
    <path d="M936.122,240.281 C936.122,236.762 933.689,233.909 930.686,233.909 C927.684,233.909 925.25,236.762 925.25,240.281 C925.25,243.8 927.684,246.653 930.686,246.653 C933.689,246.653 936.122,243.8 936.122,240.281" fill="#181919" id="path186722"/>
    <path d="M935.855,243.779 C935.855,241.844 933.476,240.276 930.541,240.276 C927.605,240.276 925.226,241.844 925.226,243.779 C925.226,245.714 927.605,247.282 930.541,247.282 C933.476,247.282 935.855,245.714 935.855,243.779" fill="#181919" id="path186724"/>
    <path d="M934.691,240.135 L926.698,240.135 L923.866,151.032 L937.208,151.032 z" fill="#030000" id="path186726"/>
    <path d="M1140.963,243.977 C1140.963,241.039 1135.198,238.66 1128.086,238.66 C1120.975,238.66 1115.21,241.039 1115.21,243.977 C1115.21,246.914 1120.975,249.294 1128.086,249.294 C1135.198,249.294 1140.963,246.914 1140.963,243.977" fill="#181919" id="path186728"/>
    <path d="M1133.479,236.916 C1133.479,233.425 1131.065,230.595 1128.086,230.595 C1125.107,230.595 1122.693,233.425 1122.693,236.916 C1122.693,240.407 1125.107,243.237 1128.086,243.237 C1131.065,243.237 1133.479,240.407 1133.479,236.916" fill="#181919" id="path186730"/>
    <path d="M1133.214,240.386 C1133.214,238.467 1130.854,236.911 1127.942,236.911 C1125.03,236.911 1122.67,238.467 1122.67,240.386 C1122.67,242.305 1125.03,243.862 1127.942,243.862 C1130.854,243.862 1133.214,242.305 1133.214,240.386" fill="#181919" id="path186732"/>
    <path d="M1004.161,287.177 C1004.161,284.216 998.349,281.816 991.181,281.816 C984.011,281.816 978.2,284.216 978.2,287.177 C978.2,290.137 984.011,292.537 991.181,292.537 C998.349,292.537 1004.161,290.137 1004.161,287.177" fill="#181919" id="path186734"/>
    <path d="M996.617,280.058 C996.617,276.539 994.183,273.686 991.181,273.686 C988.178,273.686 985.744,276.539 985.744,280.058 C985.744,283.577 988.178,286.43 991.181,286.43 C994.183,286.43 996.617,283.577 996.617,280.058" fill="#181919" id="path186736"/>
    <path d="M996.35,283.556 C996.35,281.621 993.971,280.053 991.035,280.053 C988.1,280.053 985.721,281.621 985.721,283.556 C985.721,285.491 988.1,287.06 991.035,287.06 C993.971,287.06 996.35,285.491 996.35,283.556" fill="#181919" id="path186738"/>
    <path d="M995.612,278.053 L986.675,278.053 L984.473,188.95 L997.815,188.95 z" fill="#181919" id="path186740"/>
    <path d="M1131.998,235.1 L1124.005,235.1 L1121.174,145.997 L1134.516,145.997 z" fill="#181919" id="path186742"/>
    <path d="M952.053,230.944 L952.053,240.07 L965.772,246.31 L973.053,242.991 L973.053,235.35 z" fill="#030000" id="path186744"/>
    <path d="M958.825,231.421 L956.234,231.421 L956.234,163.576 L958.549,163.576 z" fill="#323333" id="path186746"/>
    <path d="M964.415,231.78 L958.234,231.78 L958.234,163.934 L964.415,163.934 z" fill="#030000" id="path186748"/>
    <path d="M965.993,235.645 L962.849,235.645 L962.849,167.8 L965.717,167.8 z" fill="#323333" id="path186750"/>
    <path d="M971.03,236.004 L965.125,236.004 L965.125,168.158 L971.03,168.158 z" fill="#030000" id="path186752"/>
    <path d="M919.803,98.812 L919.803,107.938 C919.803,107.938 924.488,119.299 914.411,124.06 C907.304,127.419 903.303,123.076 903.303,127.324 L903.303,146.837 L937.053,146.569 L937.053,106.05 z" fill="#030000" id="path186754"/>
    <path d="M906.733,134.803 L906.704,145.732 L977.519,191.518 L977.795,177.553 z" fill="#181919" id="path186756"/>
    <path d="M923.561,100.878 L923.543,131.572 L997.664,167.459 C997.664,167.459 1006.153,170.749 1008.985,165.557 C1011.817,160.365 1010.52,135.223 1010.52,135.223 L923.561,100.878" fill="#030000" id="path186758"/>
    <path d="M924.095,130.139 L907.081,132.677 L977.672,174.687 L1003.208,171.727 z" fill="#E6E6E5" id="path186760"/>
    <path d="M977.781,177.553 L977.831,173.383 L907.053,132.678 L907.053,135.079 z" fill="#CBCBCB" id="path186762"/>
    <path d="M955.59,224.383 L973.053,231.799 L973.053,235.664 L966.597,238.574 L951.038,231.838 L951.108,227.283 z" fill="#030000" id="path186764"/>
    <path d="M1007.96,135.632 C1007.96,135.632 1007.888,150.071 1007.96,150.97 C1008.033,151.869 1006.228,158.415 999.929,162.438 C993.552,166.51 982.58,166.796 975.936,167.837 C973.138,168.275 973.576,170.277 973.576,174.053 C973.576,177.829 974.729,195.454 974.729,195.454 C974.729,195.454 986.321,195.583 1021.911,192.266 C1059.623,188.752 1087.922,184.514 1104.92,179.861 C1125.564,174.211 1110.932,161.467 1128.396,159.106 C1145.86,156.746 1156.347,154.229 1156.347,148.564 C1156.347,132.593 1155.721,113.739 1155.721,113.739 z" fill="#181919" id="path186766"/>
    <path d="M919.944,99.019 C919.944,99.019 972.95,98.353 1025.962,98.849 C1072.047,99.281 1117.185,100.507 1124.898,101.23 C1141.484,102.785 1153.372,106.381 1155.445,112.082 C1157.518,117.784 1150.764,122.95 1124.849,122.95 C1124.849,122.95 1107.738,125.663 1105.147,130.327 C1102.556,134.992 1088.313,135.613 1071.754,137.835 C1059.332,139.501 1007.931,143.845 1007.931,143.845 z" fill="#4D4D4D" id="path186768"/>
    <path d="M953.837,98.498 L1019.253,0.315 L1069.034,-0 C1069.034,-0 1060.331,22.395 1064.671,29.618 C1069.704,37.997 1138.49,16.829 1152.207,49.37 C1158.605,64.547 1133.827,95.228 1099.68,100.072 z" fill="#030000" id="path186770"/>
    <path d="M1025.686,105.478 C1071.771,105.91 1116.909,106.861 1124.622,107.584 C1140.918,109.111 1152.396,112.611 1154.768,118.141 C1155.379,116.926 1155.653,113.413 1155.169,112.081 C1153.096,106.381 1141.208,102.785 1124.622,101.23 C1116.909,100.507 1071.771,99.28 1025.686,98.849 C972.674,98.352 919.668,99.018 919.668,99.018 L926.014,106.469 C942.754,106.307 985.028,105.097 1025.686,105.478" fill="#030000" id="path186772"/>
    <path d="M925.588,101.932 L940.313,102.184 L1022.279,142.799 L1006.826,143.845 z" fill="#323333" id="path186774"/>
    <path d="M946.339,108.439 C946.339,108.439 955.937,82.966 957.824,82.022 C958.795,81.537 970.325,81.481 985.673,86.652 C1000.187,91.54 1011.395,100.564 1013.365,101.812 C1017.14,104.206 1014.532,106.828 1011.693,113.31 C1010.728,115.515 999.047,134.887 999.047,134.887 z" fill="#181919" id="path186776"/>
    <path d="M1015.1,32.58 L1056.65,139.776 L1047.638,140.326 L1010.811,33.841 C1010.811,33.841 1012.281,30.724 1015.1,32.58" fill="#181919" id="path186778"/>
    <path d="M925.329,130.51 L916.667,131.718 C916.667,131.718 915.479,132.493 915.925,132.718 C916.478,132.997 917.582,132.828 917.582,132.828 L927.13,131.317 z" fill="#181919" id="path186780"/>
    <path d="M926.982,131.347 L918.32,132.556 C918.32,132.556 917.132,133.33 917.578,133.555 C918.131,133.835 919.235,133.666 919.235,133.666 L928.783,132.154 z" fill="#181919" id="path186782"/>
    <path d="M929.738,132.469 L921.076,133.676 C921.076,133.676 919.889,134.451 920.334,134.676 C920.887,134.956 921.991,134.786 921.991,134.786 L931.539,133.275 z" fill="#181919" id="path186784"/>
    <path d="M930.839,133.165 L922.177,134.374 C922.177,134.374 920.99,135.148 921.435,135.374 C921.988,135.653 923.092,135.484 923.092,135.484 L932.64,133.973 z" fill="#181919" id="path186786"/>
    <path d="M932.216,133.864 L923.555,135.072 C923.555,135.072 922.367,135.847 922.812,136.072 C923.365,136.351 924.469,136.182 924.469,136.182 L934.017,134.671 z" fill="#181919" id="path186788"/>
    <path d="M935.519,136.092 L926.856,137.3 C926.856,137.3 925.669,138.075 926.114,138.3 C926.667,138.58 927.771,138.41 927.771,138.41 L937.319,136.899 z" fill="#181919" id="path186790"/>
    <path d="M937.171,136.93 L928.508,138.139 C928.508,138.139 927.321,138.913 927.767,139.139 C928.319,139.418 929.423,139.249 929.423,139.249 L938.972,137.738 z" fill="#181919" id="path186792"/>
    <path d="M939.927,138.051 L931.265,139.259 C931.265,139.259 930.077,140.034 930.523,140.259 C931.076,140.539 932.18,140.369 932.18,140.369 L941.728,138.858 z" fill="#181919" id="path186794"/>
    <path d="M941.028,138.748 L932.366,139.956 C932.366,139.956 931.178,140.731 931.624,140.956 C932.177,141.235 933.281,141.066 933.281,141.066 L942.829,139.555 z" fill="#181919" id="path186796"/>
    <path d="M942.405,139.446 L933.743,140.654 C933.743,140.654 932.555,141.429 933.001,141.654 C933.554,141.934 934.658,141.764 934.658,141.764 L944.206,140.253 z" fill="#181919" id="path186798"/>
    <path d="M946.813,141.589 L938.15,142.797 C938.15,142.797 936.963,143.572 937.409,143.797 C937.961,144.077 939.065,143.907 939.065,143.907 L948.614,142.396 z" fill="#181919" id="path186800"/>
    <path d="M948.465,142.427 L939.803,143.635 C939.803,143.635 938.615,144.41 939.061,144.635 C939.614,144.915 940.718,144.745 940.718,144.745 L950.266,143.234 z" fill="#181919" id="path186802"/>
    <path d="M951.221,143.548 L942.559,144.756 C942.559,144.756 941.372,145.531 941.817,145.756 C942.37,146.035 943.474,145.866 943.474,145.866 L953.022,144.355 z" fill="#181919" id="path186804"/>
    <path d="M952.322,144.244 L943.66,145.453 C943.66,145.453 942.473,146.227 942.918,146.452 C943.471,146.732 944.575,146.563 944.575,146.563 L954.123,145.051 z" fill="#181919" id="path186806"/>
    <path d="M953.699,144.943 L945.037,146.151 C945.037,146.151 943.85,146.926 944.295,147.151 C944.848,147.43 945.952,147.261 945.952,147.261 L955.5,145.75 z" fill="#181919" id="path186808"/>
    <path d="M957.555,146.99 L948.893,148.199 C948.893,148.199 947.705,148.973 948.151,149.198 C948.704,149.478 949.808,149.309 949.808,149.309 L959.356,147.797 z" fill="#181919" id="path186810"/>
    <path d="M959.208,147.828 L950.546,149.037 C950.546,149.037 949.358,149.811 949.804,150.037 C950.357,150.316 951.461,150.146 951.461,150.146 L961.009,148.635 z" fill="#181919" id="path186812"/>
    <path d="M961.964,148.949 L953.301,150.158 C953.301,150.158 952.114,150.932 952.559,151.157 C953.112,151.437 954.216,151.268 954.216,151.268 L963.764,149.756 z" fill="#181919" id="path186814"/>
    <path d="M963.065,149.646 L954.403,150.854 C954.403,150.854 953.215,151.629 953.66,151.854 C954.213,152.134 955.317,151.964 955.317,151.964 L964.865,150.453 z" fill="#181919" id="path186816"/>
    <path d="M964.442,150.344 L955.78,151.552 C955.78,151.552 954.593,152.327 955.038,152.552 C955.591,152.832 956.695,152.662 956.695,152.662 L966.243,151.151 z" fill="#181919" id="path186818"/>
    <path d="M968.573,152.669 L959.91,153.878 C959.91,153.878 958.723,154.652 959.168,154.877 C959.721,155.157 960.825,154.988 960.825,154.988 L970.373,153.476 z" fill="#181919" id="path186820"/>
    <path d="M970.225,153.508 L961.563,154.716 C961.563,154.716 960.375,155.491 960.821,155.716 C961.373,155.995 962.477,155.826 962.477,155.826 L972.026,154.315 z" fill="#181919" id="path186822"/>
    <path d="M972.981,154.628 L964.319,155.837 C964.319,155.837 963.131,156.611 963.577,156.836 C964.13,157.116 965.234,156.947 965.234,156.947 L974.782,155.435 z" fill="#181919" id="path186824"/>
    <path d="M974.082,155.325 L965.42,156.533 C965.42,156.533 964.232,157.308 964.678,157.533 C965.231,157.813 966.335,157.643 966.335,157.643 L975.883,156.132 z" fill="#181919" id="path186826"/>
    <path d="M975.459,156.023 L966.797,157.231 C966.797,157.231 965.609,158.006 966.055,158.231 C966.608,158.511 967.712,158.341 967.712,158.341 L977.26,156.83 z" fill="#181919" id="path186828"/>
    <path d="M978.761,158.206 L970.099,159.414 C970.099,159.414 968.912,160.189 969.357,160.414 C969.91,160.693 971.014,160.524 971.014,160.524 L980.562,159.013 z" fill="#181919" id="path186830"/>
    <path d="M980.414,159.044 L971.752,160.253 C971.752,160.253 970.565,161.027 971.01,161.252 C971.563,161.532 972.667,161.363 972.667,161.363 L982.215,159.851 z" fill="#181919" id="path186832"/>
    <path d="M983.171,160.165 L974.507,161.373 C974.507,161.373 973.32,162.148 973.766,162.373 C974.319,162.652 975.422,162.483 975.422,162.483 L984.971,160.972 z" fill="#181919" id="path186834"/>
    <path d="M984.271,160.861 L975.608,162.07 C975.608,162.07 974.421,162.844 974.867,163.07 C975.419,163.349 976.523,163.18 976.523,163.18 L986.072,161.669 z" fill="#181919" id="path186836"/>
    <path d="M985.649,161.56 L976.986,162.768 C976.986,162.768 975.799,163.543 976.244,163.768 C976.797,164.048 977.901,163.878 977.901,163.878 L987.449,162.367 z" fill="#181919" id="path186838"/>
    <path d="M990.332,163.75 L981.67,164.959 C981.67,164.959 980.483,165.733 980.928,165.958 C981.481,166.238 982.584,166.069 982.584,166.069 L992.133,164.557 z" fill="#181919" id="path186840"/>
    <path d="M991.985,164.588 L983.322,165.796 C983.322,165.796 982.135,166.571 982.58,166.796 C983.133,167.076 984.237,166.906 984.237,166.906 L993.785,165.395 z" fill="#181919" id="path186842"/>
    <path d="M994.741,165.709 L986.078,166.917 C986.078,166.917 984.891,167.692 985.337,167.917 C985.889,168.196 986.993,168.027 986.993,168.027 L996.542,166.516 z" fill="#181919" id="path186844"/>
    <path d="M995.841,166.405 L987.179,167.614 C987.179,167.614 985.991,168.388 986.437,168.613 C986.99,168.893 988.094,168.724 988.094,168.724 L997.642,167.212 z" fill="#181919" id="path186846"/>
    <path d="M997.219,167.104 L988.556,168.313 C988.556,168.313 987.369,169.087 987.815,169.312 C988.367,169.592 989.471,169.422 989.471,169.422 L999.02,167.911 z" fill="#181919" id="path186848"/>
    <path d="M954.476,236.965 C954.476,236.965 950.185,239.606 947.372,240.032 C944.559,240.458 945.302,242.793 947.646,242.617 C949.99,242.442 956.786,237.902 956.786,237.902 z" fill="#C1996B" id="path186850"/>
    <path d="M958.043,238.608 C958.043,238.608 953.751,241.523 950.939,241.949 C948.125,242.374 949.418,244.709 951.761,244.534 C954.105,244.358 960.626,239.544 960.626,239.544 z" fill="#C1996B" id="path186852"/>
    <path d="M961.609,239.977 C961.609,239.977 957.866,243.439 955.053,243.865 C952.241,244.29 953.807,246.078 956.15,245.902 C959.037,245.686 965.113,240.223 964.193,240.913 z" fill="#C1996B" id="path186854"/>
    <path d="M913.585,257.67 L910.685,258.499 L909.856,198.943 L916.071,198.943 z" fill="#030000" id="path186856"/>
    <path d="M913.729,253.304 L911.431,254.069 L911.311,258.349 L913.585,257.671 z" fill="#866D41" id="path186858"/>
    <path d="M879.458,209.938 L880.738,212.863 L880.941,206.638 L874.726,206.361 L876.5,260.566 L878.672,261.852 z" fill="#181919" id="path186860"/>
    <path d="M881.301,214.15 L880.738,212.863 L879.458,209.938 L878.672,261.851 L878.86,261.964 L879.11,262.112 L881.759,261.341 L883.145,215.582 z" fill="#030000" id="path186862"/>
    <path d="M878.86,261.963 L878.672,261.851 L878.632,265.864 L878.731,265.916 z" fill="#030000" id="path186864"/>
    <path d="M906.711,284.473 L906.732,284.485 L909.77,283.573 L912.135,228.769 L906.974,228.769 L907.025,228.885 z" fill="#181919" id="path186866"/>
    <path d="M906.934,284.474 L907.274,229 L907.237,229 L902.594,228.725 L904.547,283.229 L906.527,284.431 L906.527,284.431 z" fill="#030000" id="path186868"/>
    <path d="M906.635,284.427 L906.749,288.548 L906.711,284.473 z" fill="#030000" id="path186870"/>
    <path d="M943.752,277.897 L945.563,223.519 L941.597,223.519 L940.835,278.671 z" fill="#181919" id="path186872"/>
    <path d="M936.946,223.488 L938.828,277.51 L940.803,278.613 L940.803,278.614 L941.36,278.679 L941.16,278.638 L942.451,223.473 L942.469,222.238 z" fill="#181919" id="path186874"/>
    <path d="M940.709,278.684 L940.607,278.624 L940.73,283.048 L940.835,278.651 z" fill="#030000" id="path186876"/>
    <path d="M940.73,283.048 L943.63,282.22 L943.752,277.883 L939.806,278.9 z" fill="#C1996B" id="path186878"/>
    <path d="M940.73,283.048 L940.883,278.624 L938.729,277.513 L938.901,282.01 z" fill="#866D41" id="path186880"/>
    <path d="M906.863,284.197 L907.053,288.549 L907.053,288.549 L909.801,287.997 L909.846,283.685 L906.846,284.485 z" fill="#C1996B" id="path186882"/>
    <path d="M907.053,288.552 L907.053,288.544 L907.063,284.423 L904.679,283.222 L905.006,287.297 z" fill="#866D41" id="path186884"/>
    <path d="M878.632,265.864 L878.671,261.851 L876.499,260.566 L876.659,264.811 z" fill="#C1996B" id="path186886"/>
    <path d="M878.629,265.917 L881.693,264.955 L881.759,260.788 L878.557,261.835 z" fill="#866D41" id="path186888"/>
    <path d="M909.028,191.487 L874.235,197.757 L874.381,209.13 L907.23,233.294 L946.053,225.214 L946.053,212.943 z" fill="#030000" id="path186890"/>
    <path d="M876.176,199.772 C876.176,199.772 880.004,202.404 885.747,206.351 C888.608,208.337 891.983,210.602 895.583,213.046 C897.387,214.261 899.258,215.506 901.18,216.736 C903.101,217.957 905.072,219.205 907.1,220.243 C907.595,220.474 908.154,220.771 908.54,220.732 C909.1,220.697 909.649,220.618 910.226,220.537 C911.365,220.371 912.5,220.184 913.625,219.994 C915.875,219.593 918.088,219.199 920.231,218.818 C924.515,218.041 928.513,217.316 931.94,216.694 C938.801,215.47 943.375,214.655 943.375,214.655 C943.375,214.655 942.242,214.912 940.259,215.36 C938.273,215.791 935.44,216.432 932.029,217.143 C930.323,217.496 928.474,217.879 926.519,218.283 C924.563,218.68 922.502,219.117 920.362,219.518 C918.219,219.917 916.006,220.329 913.757,220.747 C912.629,220.948 911.492,221.144 910.342,221.32 C909.776,221.405 909.176,221.496 908.578,221.537 C908.474,221.554 908.169,221.545 908.033,221.494 C907.864,221.452 907.714,221.401 907.57,221.345 C907.277,221.236 907.009,221.108 906.738,220.98 C904.624,219.912 902.687,218.63 900.757,217.391 C898.838,216.139 896.973,214.876 895.176,213.643 C891.576,211.186 888.298,208.777 885.473,206.737 C882.65,204.694 880.343,202.93 878.714,201.713 C877.099,200.478 876.176,199.772 876.176,199.772" fill="#4D4D4D" id="path186892"/>
    <path d="M907.771,224.578 C907.771,224.578 907.91,224.957 908.008,225.527 C908.113,226.097 908.182,226.857 908.185,227.616 C908.185,228.376 908.114,229.135 908.009,229.706 C907.91,230.275 907.771,230.655 907.771,230.655 C907.771,230.655 907.631,230.275 907.533,229.706 C907.427,229.135 907.359,228.376 907.357,227.616 C907.357,226.857 907.429,226.097 907.534,225.527 C907.632,224.957 907.771,224.578 907.771,224.578" fill="#4D4D4D" id="path186894"/>
    <path d="M829.443,235.708 C829.17,235.797 828.915,235.811 828.742,235.728 C785.787,215.109 714.653,232.228 617.148,255.695 C609.408,257.558 601.348,259.497 593.157,261.45 C550.963,271.508 506.881,277.526 459.016,279.19 C415.715,280.696 365.687,278.803 306.344,272.623 C242.41,265.964 177.375,255.322 128.782,246.502 C67.157,235.316 25.791,226.063 23.921,225.644 C17.933,224.3 15.401,222.953 17.182,222.391 C17.186,222.391 17.19,222.391 17.195,222.384 C18.98,221.821 24.433,222.282 30.383,223.645 C31.215,223.835 72.12,233.145 131.3,244.102 C178.598,252.857 242.051,263.449 304.876,270.182 C392.786,279.605 492.705,282.823 590.852,259.538 C599.156,257.567 607.322,255.605 615.169,253.724 C666.639,241.395 709.198,231.196 747.679,226.883 C786.467,222.537 812.833,225.336 830.552,234.087 C830.902,234.26 830.777,234.766 830.276,235.216 C830.024,235.444 829.723,235.614 829.443,235.705" fill="#030000" id="path186896"/>
    <path d="M831.148,229.18 C830.864,229.272 830.601,229.282 830.423,229.191 C787.736,207.136 717.621,222.279 619.894,243.386 C612.117,245.065 604.007,246.817 595.764,248.578 C554.131,257.473 510.254,262.291 462.329,262.621 C418.841,262.919 368.493,259.583 308.767,251.634 C244.394,243.067 179.103,230.451 130.431,220.162 C68.76,207.125 26.636,196.406 24.77,195.931 C18.266,194.27 14.219,192.352 15.832,191.671 C17.423,190.985 24.068,191.821 30.527,193.501 C32.257,193.951 173.903,230.551 306.967,248.734 C395.573,260.842 496.096,266.987 593.423,246.342 C601.788,244.567 610.02,242.801 617.912,241.108 C667.509,230.47 711.953,220.936 750.236,217.708 C788.662,214.468 814.722,218.079 832.316,227.437 C832.677,227.629 832.543,228.176 832.019,228.659 C831.754,228.904 831.44,229.084 831.148,229.18" fill="#030000" id="path186898"/>
    <path d="M832.394,221.447 C832.098,221.543 831.824,221.551 831.638,221.447 C788.934,197.59 719.306,210.491 620.336,228.829 C612.427,230.294 604.163,231.826 595.763,233.362 C554.145,240.973 509.84,244.409 461.079,243.137 C416.636,241.978 364.986,236.851 303.586,226.657 C163.659,203.424 18.531,161.783 11.019,159.616 C3.722,157.51 -1.159,155.077 0.239,154.214 C1.66,153.356 8.773,154.414 16.046,156.553 C18.534,157.284 164.078,199.782 301.402,223.156 C392.588,238.677 495.479,248.416 593.355,230.71 C601.89,229.167 610.287,227.627 618.323,226.154 C668.705,216.919 713.366,208.732 751.781,206.788 C790.125,204.847 816.05,209.432 833.63,219.548 C834.006,219.765 833.861,220.365 833.311,220.888 C833.032,221.153 832.701,221.347 832.394,221.447" fill="#030000" id="path186900"/>
    <path d="M834.115,214.852 C833.808,214.951 833.525,214.956 833.334,214.842 C790.907,189.516 718.52,201.073 623.087,216.307 C615.151,217.574 606.848,218.899 598.408,220.227 C557.242,226.698 513.12,228.902 464.33,226.219 C419.749,223.766 367.844,217.081 306.124,204.972 C165.321,177.346 20.274,131.096 12.782,128.695 C4.996,126.199 -0.488,123.291 0.672,122.24 C1.85,121.195 9.2,122.431 16.982,124.975 C19.534,125.806 165.274,173.1 303.692,200.921 C395.458,219.365 498.788,232.249 595.994,217.206 C604.577,215.878 613.022,214.55 621.092,213.281 C671.632,205.336 716.085,198.346 754.304,197.512 C792.314,196.683 817.961,202.08 835.412,212.817 C835.8,213.055 835.646,213.701 835.071,214.258 C834.779,214.542 834.434,214.748 834.115,214.852" fill="#030000" id="path186902"/>
    <path d="M835.887,208.359 C835.571,208.462 835.278,208.463 835.082,208.339 C792.962,181.573 721.49,191.16 626.067,203.959 C618.119,205.025 609.792,206.142 601.329,207.256 C560.626,212.614 516.74,213.599 468.014,209.51 C423.397,205.765 371.368,197.521 309.493,183.5 C168.23,151.49 23.632,100.709 16.181,98.08 C7.946,95.173 1.886,91.751 2.803,90.485 C3.718,89.215 11.282,90.635 19.534,93.604 C22.119,94.533 167.714,146.58 306.831,178.861 C398.933,200.233 502.463,216.268 598.923,203.853 C607.537,202.744 616.012,201.632 624.101,200.571 C674.714,193.929 718.92,188.128 756.91,188.39 C794.57,188.65 819.933,194.839 837.248,206.186 C837.646,206.447 837.48,207.139 836.882,207.732 C836.577,208.033 836.218,208.252 835.887,208.359" fill="#030000" id="path186904"/>
    <path d="M160.517,147.456 C144.625,136.308 136.828,113.415 134.288,104.447 L134.575,103.407 C134.977,101.948 134.119,100.438 132.659,100.036 L132.395,99.964 C130.936,99.562 129.426,100.419 129.025,101.879 L106.512,183.635 C101.751,177.691 92.5,174.241 82.346,175.381 C68.353,176.952 57.954,186.642 59.12,197.024 C60.285,207.406 72.574,214.549 86.567,212.978 C99.846,211.487 109.887,202.684 109.881,192.918 C109.948,192.777 110.006,192.629 110.049,192.473 L125.263,137.225 C129.011,141.097 138.795,151.066 145.929,157.088 C154.928,164.685 140.367,180.296 140.367,180.296 C149.825,176.929 180.536,161.5 160.517,147.456" fill="#030000" id="path186906"/>
    <path d="M289.177,233.614 L288.63,178.566 L288.879,178.541 L288.69,159.478 L215.196,168.257 L215.324,181.177 L215.386,187.32 L215.861,235.188 C211.847,232.883 206.199,232.328 200.562,234.113 C191.479,236.987 185.85,244.839 188.006,251.651 C190.161,258.464 199.244,261.656 208.326,258.781 C217.298,255.943 222.974,248.247 220.912,241.495 L220.368,186.715 L283.648,179.171 L284.126,227.308 C280.112,225.004 274.503,224.449 268.866,226.231 C259.783,229.105 254.174,236.957 256.329,243.769 C258.485,250.582 267.537,253.776 276.62,250.902 C285.593,248.062 291.239,240.367 289.177,233.614" fill="#030000" id="path186908"/>
    <path d="M401.566,240.02 L401.279,172.046 C401.273,170.729 400.101,169.713 398.783,169.718 L397.829,169.726 C396.512,169.733 395.528,170.757 395.534,172.074 L395.791,232.89 C391.139,230.27 384.92,229.609 378.563,231.581 C368.317,234.759 361.924,243.564 364.307,251.248 C366.69,258.931 376.967,262.585 387.213,259.407 C397.333,256.268 403.587,247.64 401.566,240.023" fill="#030000" id="path186910"/>
    <path d="M540.687,205.729 C529.744,198.053 524.375,182.288 522.626,176.113 L522.823,175.396 C523.1,174.391 522.509,173.352 521.504,173.075 L521.322,173.026 C520.317,172.749 519.278,173.339 519.001,174.344 L503.498,230.643 C500.22,226.549 493.85,224.174 486.857,224.959 C477.221,226.041 470.06,232.714 470.863,239.863 C471.666,247.012 480.128,251.931 489.764,250.849 C498.908,249.823 505.823,243.761 505.819,237.035 C505.865,236.938 505.905,236.836 505.934,236.729 L516.41,198.684 C518.991,201.35 525.729,208.215 530.642,212.362 C536.838,217.594 526.812,228.343 526.812,228.343 C533.324,226.025 554.473,215.4 540.687,205.729" fill="#030000" id="path186912"/>
    <path d="M677.278,220.757 L682.469,180.436 L682.654,180.443 L684.452,166.48 L629.803,165.436 L628.584,174.901 L628.005,179.4 L623.49,214.462 C620.789,212.368 616.713,211.389 612.409,212.121 C605.474,213.301 600.558,218.473 601.443,223.675 C602.327,228.876 608.647,232.134 615.583,230.954 C622.433,229.789 627.368,224.737 626.545,219.588 L631.711,179.464 L678.764,180.373 L674.224,215.632 C671.522,213.538 667.475,212.563 663.171,213.295 C656.235,214.474 651.335,219.648 652.22,224.85 C653.105,230.051 659.402,233.306 666.338,232.127 C673.188,230.962 678.101,225.906 677.278,220.758" fill="#030000" id="path186914"/>
    <path d="M757.7,205.575 L766.304,157.483 C766.471,156.551 765.774,155.681 764.842,155.514 L764.167,155.394 C763.235,155.227 762.407,155.824 762.239,156.756 L754.541,199.784 C751.593,197.329 747.282,196.056 742.532,196.626 C734.877,197.546 729.217,202.942 729.905,208.682 C730.595,214.423 737.387,218.338 745.042,217.419 C752.603,216.511 758.142,211.222 757.7,205.575" fill="#030000" id="path186916"/>
  </g>
</svg>
