<?xml version="1.0" encoding="UTF-8" standalone="no"?>
<svg
   version="1.1"
   x="0"
   y="0"
   width="282.112"
   height="292.53699"
   viewBox="0 0 282.11199 292.537"
   id="svg102"
   sodipodi:docname="app-icon.svg"
   inkscape:version="1.2.2 (732a01da63, 2022-12-09)"
   inkscape:export-filename="app-icon.png"
   inkscape:export-xdpi="174.22867"
   inkscape:export-ydpi="174.22867"
   xmlns:inkscape="http://www.inkscape.org/namespaces/inkscape"
   xmlns:sodipodi="http://sodipodi.sourceforge.net/DTD/sodipodi-0.dtd"
   xmlns="http://www.w3.org/2000/svg"
   xmlns:svg="http://www.w3.org/2000/svg">
  <defs
     id="defs106" />
  <sodipodi:namedview
     id="namedview104"
     pagecolor="#ffffff"
     bordercolor="#666666"
     borderopacity="1.0"
     inkscape:pageshadow="2"
     inkscape:pageopacity="0.0"
     inkscape:pagecheckerboard="0"
     showgrid="false"
     inkscape:zoom="3.5491488"
     inkscape:cx="167.36407"
     inkscape:cy="122.5646"
     inkscape:window-width="2760"
     inkscape:window-height="1764"
     inkscape:window-x="3954"
     inkscape:window-y="114"
     inkscape:window-maximized="0"
     inkscape:current-layer="svg102"
     inkscape:showpageshadow="2"
     inkscape:deskcolor="#d1d1d1" />
  <g
     id="g5339"
     transform="translate(-8.1e-4,-0.1675917)"
     inkscape:export-filename="P:\pr\art\png\piano.png"
     inkscape:export-xdpi="96"
     inkscape:export-ydpi="96">
    <path
       d="m 69.43281,247.56759 c 0,-2.961 -5.812,-5.361 -12.981,-5.361 -7.168,0 -12.98,2.4 -12.98,5.361 0,2.96 5.812,5.36 12.98,5.36 7.169,0 12.981,-2.4 12.981,-5.36"
       fill="#181919"
       id="path186720" />
    <path
       d="m 61.88781,240.44859 c 0,-3.519 -2.433,-6.372 -5.436,-6.372 -3.002,0 -5.436,2.853 -5.436,6.372 0,3.519 2.434,6.372 5.436,6.372 3.003,0 5.436,-2.853 5.436,-6.372"
       fill="#181919"
       id="path186722" />
    <path
       d="m 61.62081,243.94659 c 0,-1.935 -2.379,-3.503 -5.314,-3.503 -2.936,0 -5.315,1.568 -5.315,3.503 0,1.935 2.379,3.503 5.315,3.503 2.935,0 5.314,-1.568 5.314,-3.503"
       fill="#181919"
       id="path186724" />
    <path
       d="m 60.45681,240.30259 h -7.993 l -2.832,-89.103 h 13.342 z"
       fill="#030000"
       id="path186726" />
    <path
       d="m 266.72881,244.14459 c 0,-2.938 -5.765,-5.317 -12.877,-5.317 -7.111,0 -12.876,2.379 -12.876,5.317 0,2.937 5.765,5.317 12.876,5.317 7.112,0 12.877,-2.38 12.877,-5.317"
       fill="#181919"
       id="path186728" />
    <path
       d="m 259.24481,237.08359 c 0,-3.491 -2.414,-6.321 -5.393,-6.321 -2.979,0 -5.393,2.83 -5.393,6.321 0,3.491 2.414,6.321 5.393,6.321 2.979,0 5.393,-2.83 5.393,-6.321"
       fill="#181919"
       id="path186730" />
    <path
       d="m 258.97981,240.55359 c 0,-1.919 -2.36,-3.475 -5.272,-3.475 -2.912,0 -5.272,1.556 -5.272,3.475 0,1.919 2.36,3.476 5.272,3.476 2.912,0 5.272,-1.557 5.272,-3.476"
       fill="#181919"
       id="path186732" />
    <path
       d="m 129.92681,287.34459 c 0,-2.961 -5.812,-5.361 -12.98,-5.361 -7.17,0 -12.981,2.4 -12.981,5.361 0,2.96 5.811,5.36 12.981,5.36 7.168,0 12.98,-2.4 12.98,-5.36"
       fill="#181919"
       id="path186734" />
    <path
       d="m 122.38281,280.22559 c 0,-3.519 -2.434,-6.372 -5.436,-6.372 -3.003,0 -5.437,2.853 -5.437,6.372 0,3.519 2.434,6.372 5.437,6.372 3.002,0 5.436,-2.853 5.436,-6.372"
       fill="#181919"
       id="path186736" />
    <path
       d="m 122.11581,283.72359 c 0,-1.935 -2.379,-3.503 -5.315,-3.503 -2.935,0 -5.314,1.568 -5.314,3.503 0,1.935 2.379,3.504 5.314,3.504 2.936,0 5.315,-1.569 5.315,-3.504"
       fill="#181919"
       id="path186738" />
    <path
       d="m 121.37781,278.22059 h -8.937 l -2.202,-89.103 h 13.342 z"
       fill="#181919"
       id="path186740" />
    <path
       d="m 257.76381,235.26759 h -7.993 l -2.831,-89.103 h 13.342 z"
       fill="#181919"
       id="path186742" />
    <path
       d="m 77.81881,231.11159 v 9.126 l 13.719,6.24 7.281,-3.319 v -7.641 z"
       fill="#030000"
       id="path186744" />
    <path
       d="m 84.59081,231.58859 h -2.591 v -67.845 h 2.315 z"
       fill="#323333"
       id="path186746" />
    <path
       d="m 90.18081,231.94759 h -6.181 v -67.846 h 6.181 z"
       fill="#030000"
       id="path186748" />
    <path
       d="m 91.75881,235.81259 h -3.144 v -67.845 h 2.868 z"
       fill="#323333"
       id="path186750" />
    <path
       d="m 96.79581,236.17159 h -5.905 v -67.846 h 5.905 z"
       fill="#030000"
       id="path186752" />
    <path
       d="m 45.56881,98.979593 v 9.125997 c 0,0 4.685,11.361 -5.392,16.122 -7.107,3.359 -11.108,-0.984 -11.108,3.264 v 19.513 l 33.75,-0.268 v -40.519 z"
       fill="#030000"
       id="path186754" />
    <path
       d="m 32.49881,134.97059 -0.029,10.929 70.815,45.786 0.276,-13.965 z"
       fill="#181919"
       id="path186756" />
    <path
       d="m 49.32681,101.04559 -0.018,30.694 74.121,35.887 c 0,0 8.489,3.29 11.321,-1.902 2.832,-5.192 1.535,-30.334 1.535,-30.334 l -86.959,-34.345"
       fill="#030000"
       id="path186758" />
    <path
       d="m 81.35581,224.55059 17.463,7.416 v 3.865 l -6.456,2.91 -15.559,-6.736 0.07,-4.555 z"
       fill="#030000"
       id="path186764" />
    <g
       id="g4913">
      <path
         d="m 49.86081,130.30659 -17.014,2.538 70.591,42.01 25.536,-2.96 z"
         fill="#e6e6e5"
         id="path186760" />
      <path
         d="m 103.54681,177.72059 0.05,-4.17 -70.778,-40.705 v 2.401 z"
         fill="#cbcbcb"
         id="path186762" />
      <path
         d="m 51.09481,130.67759 -8.662,1.208 c 0,0 -1.188,0.775 -0.742,1 0.553,0.279 1.657,0.11 1.657,0.11 l 9.548,-1.511 z"
         fill="#181919"
         id="path186780" />
      <path
         d="m 52.74781,131.51459 -8.662,1.209 c 0,0 -1.188,0.774 -0.742,0.999 0.553,0.28 1.657,0.111 1.657,0.111 l 9.548,-1.512 z"
         fill="#181919"
         id="path186782" />
      <path
         d="m 55.50381,132.63659 -8.662,1.207 c 0,0 -1.187,0.775 -0.742,1 0.553,0.28 1.657,0.11 1.657,0.11 l 9.548,-1.511 z"
         fill="#181919"
         id="path186784" />
      <path
         d="m 56.60481,133.33259 -8.662,1.209 c 0,0 -1.187,0.774 -0.742,1 0.553,0.279 1.657,0.11 1.657,0.11 l 9.548,-1.511 z"
         fill="#181919"
         id="path186786" />
      <path
         d="m 57.98181,134.03159 -8.661,1.208 c 0,0 -1.188,0.775 -0.743,1 0.553,0.279 1.657,0.11 1.657,0.11 l 9.548,-1.511 z"
         fill="#181919"
         id="path186788" />
      <path
         d="m 61.28481,136.25959 -8.663,1.208 c 0,0 -1.187,0.775 -0.742,1 0.553,0.28 1.657,0.11 1.657,0.11 l 9.548,-1.511 z"
         fill="#181919"
         id="path186790" />
      <path
         d="m 62.93681,137.09759 -8.663,1.209 c 0,0 -1.187,0.774 -0.741,1 0.552,0.279 1.656,0.11 1.656,0.11 l 9.549,-1.511 z"
         fill="#181919"
         id="path186792" />
      <path
         d="m 65.69281,138.21859 -8.662,1.208 c 0,0 -1.188,0.775 -0.742,1 0.553,0.28 1.657,0.11 1.657,0.11 l 9.548,-1.511 z"
         fill="#181919"
         id="path186794" />
      <path
         d="m 66.79381,138.91559 -8.662,1.208 c 0,0 -1.188,0.775 -0.742,1 0.553,0.279 1.657,0.11 1.657,0.11 l 9.548,-1.511 z"
         fill="#181919"
         id="path186796" />
      <path
         d="m 68.17081,139.61359 -8.662,1.208 c 0,0 -1.188,0.775 -0.742,1 0.553,0.28 1.657,0.11 1.657,0.11 l 9.548,-1.511 z"
         fill="#181919"
         id="path186798" />
      <path
         d="m 72.57881,141.75659 -8.663,1.208 c 0,0 -1.187,0.775 -0.741,1 0.552,0.28 1.656,0.11 1.656,0.11 l 9.549,-1.511 z"
         fill="#181919"
         id="path186800" />
      <path
         d="m 74.23081,142.59459 -8.662,1.208 c 0,0 -1.188,0.775 -0.742,1 0.553,0.28 1.657,0.11 1.657,0.11 l 9.548,-1.511 z"
         fill="#181919"
         id="path186802" />
      <path
         d="m 76.98681,143.71559 -8.662,1.208 c 0,0 -1.187,0.775 -0.742,1 0.553,0.279 1.657,0.11 1.657,0.11 l 9.548,-1.511 z"
         fill="#181919"
         id="path186804" />
      <path
         d="m 78.08781,144.41159 -8.662,1.209 c 0,0 -1.187,0.774 -0.742,0.999 0.553,0.28 1.657,0.111 1.657,0.111 l 9.548,-1.512 z"
         fill="#181919"
         id="path186806" />
      <path
         d="m 79.46481,145.11059 -8.662,1.208 c 0,0 -1.187,0.775 -0.742,1 0.553,0.279 1.657,0.11 1.657,0.11 l 9.548,-1.511 z"
         fill="#181919"
         id="path186808" />
      <path
         d="m 83.32081,147.15759 -8.662,1.209 c 0,0 -1.188,0.774 -0.742,0.999 0.553,0.28 1.657,0.111 1.657,0.111 l 9.548,-1.512 z"
         fill="#181919"
         id="path186810" />
      <path
         d="m 84.97381,147.99559 -8.662,1.209 c 0,0 -1.188,0.774 -0.742,1 0.553,0.279 1.657,0.109 1.657,0.109 l 9.548,-1.511 z"
         fill="#181919"
         id="path186812" />
      <path
         d="m 87.72981,149.11659 -8.663,1.209 c 0,0 -1.187,0.774 -0.742,0.999 0.553,0.28 1.657,0.111 1.657,0.111 l 9.548,-1.512 z"
         fill="#181919"
         id="path186814" />
      <path
         d="m 88.83081,149.81359 -8.662,1.208 c 0,0 -1.188,0.775 -0.743,1 0.553,0.28 1.657,0.11 1.657,0.11 l 9.548,-1.511 z"
         fill="#181919"
         id="path186816" />
      <path
         d="m 90.20781,150.51159 -8.662,1.208 c 0,0 -1.187,0.775 -0.742,1 0.553,0.28 1.657,0.11 1.657,0.11 l 9.548,-1.511 z"
         fill="#181919"
         id="path186818" />
      <path
         d="m 94.33881,152.83659 -8.663,1.209 c 0,0 -1.187,0.774 -0.742,0.999 0.553,0.28 1.657,0.111 1.657,0.111 l 9.548,-1.512 z"
         fill="#181919"
         id="path186820" />
      <path
         d="m 95.99081,153.67559 -8.662,1.208 c 0,0 -1.188,0.775 -0.742,1 0.552,0.279 1.656,0.11 1.656,0.11 l 9.549,-1.511 z"
         fill="#181919"
         id="path186822" />
      <path
         d="m 98.74681,154.79559 -8.662,1.209 c 0,0 -1.188,0.774 -0.742,0.999 0.553,0.28 1.657,0.111 1.657,0.111 l 9.548,-1.512 z"
         fill="#181919"
         id="path186824" />
      <path
         d="m 99.84781,155.49259 -8.662,1.208 c 0,0 -1.188,0.775 -0.742,1 0.553,0.28 1.657,0.11 1.657,0.11 l 9.548,-1.511 z"
         fill="#181919"
         id="path186826" />
      <path
         d="m 101.22481,156.19059 -8.662,1.208 c 0,0 -1.188,0.775 -0.742,1 0.553,0.28 1.657,0.11 1.657,0.11 l 9.548,-1.511 z"
         fill="#181919"
         id="path186828" />
      <path
         d="m 104.52681,158.37359 -8.662,1.208 c 0,0 -1.187,0.775 -0.742,1 0.553,0.279 1.657,0.11 1.657,0.11 l 9.548,-1.511 z"
         fill="#181919"
         id="path186830" />
      <path
         d="m 106.17981,159.21159 -8.662,1.209 c 0,0 -1.187,0.774 -0.742,0.999 0.553,0.28 1.657,0.111 1.657,0.111 l 9.548,-1.512 z"
         fill="#181919"
         id="path186832" />
      <path
         d="m 108.93681,160.33259 -8.664,1.208 c 0,0 -1.187,0.775 -0.741,1 0.553,0.279 1.656,0.11 1.656,0.11 l 9.549,-1.511 z"
         fill="#181919"
         id="path186834" />
      <path
         d="m 110.03681,161.02859 -8.663,1.209 c 0,0 -1.187,0.774 -0.741,1 0.552,0.279 1.656,0.11 1.656,0.11 l 9.549,-1.511 z"
         fill="#181919"
         id="path186836" />
      <path
         d="m 111.41481,161.72759 -8.663,1.208 c 0,0 -1.187,0.775 -0.742,1 0.553,0.28 1.657,0.11 1.657,0.11 l 9.548,-1.511 z"
         fill="#181919"
         id="path186838" />
      <path
         d="m 116.09781,163.91759 -8.662,1.209 c 0,0 -1.187,0.774 -0.742,0.999 0.553,0.28 1.656,0.111 1.656,0.111 l 9.549,-1.512 z"
         fill="#181919"
         id="path186840" />
      <path
         d="m 117.75081,164.75559 -8.663,1.208 c 0,0 -1.187,0.775 -0.742,1 0.553,0.28 1.657,0.11 1.657,0.11 l 9.548,-1.511 z"
         fill="#181919"
         id="path186842" />
      <path
         d="m 120.50681,165.87659 -8.663,1.208 c 0,0 -1.187,0.775 -0.741,1 0.552,0.279 1.656,0.11 1.656,0.11 l 9.549,-1.511 z"
         fill="#181919"
         id="path186844" />
      <path
         d="m 121.60681,166.57259 -8.662,1.209 c 0,0 -1.188,0.774 -0.742,0.999 0.553,0.28 1.657,0.111 1.657,0.111 l 9.548,-1.512 z"
         fill="#181919"
         id="path186846" />
      <path
         d="m 122.98481,167.27159 -8.663,1.209 c 0,0 -1.187,0.774 -0.741,0.999 0.552,0.28 1.656,0.11 1.656,0.11 l 9.549,-1.511 z"
         fill="#181919"
         id="path186848" />
    </g>
    <path
       d="m 133.72581,135.79959 c 0,0 -0.072,14.439 0,15.338 0.073,0.899 -1.732,7.445 -8.031,11.468 -6.377,4.072 -17.349,4.358 -23.993,5.399 -2.798,0.438 -2.36,2.44 -2.36,6.216 0,3.776 1.153,21.401 1.153,21.401 0,0 11.592,0.129 47.182,-3.188 37.712,-3.514 66.011,-7.752 83.009,-12.405 20.644,-5.65 6.012,-18.394 23.476,-20.755 17.464,-2.36 27.951,-4.877 27.951,-10.542 0,-15.971 -0.626,-34.825 -0.626,-34.825 z"
       fill="#181919"
       id="path186766"
       style="fill:#212121;fill-opacity:1" />
    <path
       d="m 45.70981,99.186593 c 0,0 53.006,-0.666 106.018,-0.17 46.085,0.432 91.223,1.657997 98.936,2.380997 16.586,1.555 28.474,5.151 30.547,10.852 2.073,5.702 -4.681,10.868 -30.596,10.868 0,0 -17.111,2.713 -19.702,7.377 -2.591,4.665 -16.834,5.286 -33.393,7.508 -12.422,1.666 -63.823,6.01 -63.823,6.01 z"
       fill="#4d4d4d"
       id="path186768"
       style="fill:#806600" />
    <path
       d="m 79.60281,98.665593 65.416,-98.1830013 49.781,-0.315 c 0,0 -8.703,22.3950003 -4.363,29.6180003 5.033,8.379 73.819,-12.789 87.536,19.752 6.398,15.177 -18.38,45.858001 -52.527,50.701998 z"
       fill="#030000"
       id="path186770" />
    <path
       d="m 151.45181,105.64559 c 46.085,0.432 91.223,1.383 98.936,2.106 16.296,1.527 27.774,5.027 30.146,10.557 0.611,-1.215 0.885,-4.728 0.401,-6.06 -2.073,-5.7 -13.961,-9.296 -30.547,-10.851 -7.713,-0.723 -52.851,-1.949997 -98.936,-2.380997 -53.012,-0.497 -106.018,0.169 -106.018,0.169 l 6.346,7.450997 c 16.74,-0.162 59.014,-1.372 99.672,-0.991"
       fill="#030000"
       id="path186772" />
    <path
       d="m 51.35381,102.09959 14.725,0.252 81.966,40.615 -15.453,1.046 z"
       fill="#323333"
       id="path186774"
       style="fill:#3c3d3d;fill-opacity:1" />
    <path
       d="m 72.10481,108.60659 c 0,0 9.598,-25.472997 11.485,-26.416998 0.971,-0.485 12.501,-0.541 27.849,4.630001 14.514,4.888 25.722,13.911997 27.692,15.159997 3.775,2.394 1.167,5.016 -1.672,11.498 -0.965,2.205 -12.646,21.577 -12.646,21.577 z"
       fill="#181919"
       id="path186776"
       style="fill:#1f2020;fill-opacity:1" />
    <path
       d="m 140.86581,32.747592 41.55,107.195998 -9.012,0.55 -36.827,-106.484998 c 0,0 1.47,-3.117 4.289,-1.261"
       fill="#181919"
       id="path186778" />
    <path
       d="m 80.24181,237.13259 c 0,0 -4.291,2.641 -7.104,3.067 -2.813,0.426 -2.07,2.761 0.274,2.585 2.344,-0.175 9.14,-4.715 9.14,-4.715 z"
       fill="#c1996b"
       id="path186850" />
    <path
       d="m 83.80881,238.77559 c 0,0 -4.292,2.915 -7.104,3.341 -2.814,0.425 -1.521,2.76 0.822,2.585 2.344,-0.176 8.865,-4.99 8.865,-4.99 z"
       fill="#c1996b"
       id="path186852" />
    <path
       d="m 87.37481,240.14459 c 0,0 -3.743,3.462 -6.556,3.888 -2.812,0.425 -1.246,2.213 1.097,2.037 2.887,-0.216 8.963,-5.679 8.043,-4.989 z"
       fill="#c1996b"
       id="path186854" />
    <path
       d="m 39.35081,257.83759 -2.9,0.829 -0.829,-59.556 h 6.215 z"
       fill="#030000"
       id="path186856" />
    <path
       d="m 39.49481,253.47159 -2.298,0.765 -0.12,4.28 2.274,-0.678 z"
       fill="#866d41"
       id="path186858" />
    <path
       d="m 5.22381,210.10559 1.28,2.925 0.203,-6.225 -6.215,-0.277 1.774,54.205 2.172,1.286 z"
       fill="#181919"
       id="path186860" />
    <path
       d="m 7.06681,214.31759 -0.563,-1.287 -1.28,-2.925 -0.786,51.913 0.188,0.113 0.25,0.148 2.649,-0.771 1.386,-45.759 z"
       fill="#030000"
       id="path186862" />
    <path
       d="m 4.62581,262.13059 -0.188,-0.112 -0.04,4.013 0.099,0.052 z"
       fill="#030000"
       id="path186864" />
    <path
       d="m 32.47681,284.64059 0.021,0.012 3.038,-0.912 2.365,-54.804 h -5.161 l 0.051,0.116 z"
       fill="#181919"
       id="path186866" />
    <path
       d="m 32.69981,284.64159 0.34,-55.474 h -0.037 l -4.643,-0.275 1.953,54.504 1.98,1.202 v 0 z"
       fill="#030000"
       id="path186868" />
    <path
       d="m 32.40081,284.59459 0.114,4.121 -0.038,-4.075 z"
       fill="#030000"
       id="path186870" />
    <path
       d="m 69.51781,278.06459 1.811,-54.378 h -3.966 l -0.762,55.152 z"
       fill="#181919"
       id="path186872" />
    <path
       d="m 62.71181,223.65559 1.882,54.022 1.975,1.103 v 10e-4 l 0.557,0.065 -0.2,-0.041 1.291,-55.165 0.018,-1.235 z"
       fill="#181919"
       id="path186874" />
    <path
       d="m 66.47481,278.85159 -0.102,-0.06 0.123,4.424 0.105,-4.397 z"
       fill="#030000"
       id="path186876" />
    <path
       d="m 66.49581,283.21559 2.9,-0.828 0.122,-4.337 -3.946,1.017 z"
       fill="#c1996b"
       id="path186878" />
    <path
       d="m 66.49581,283.21559 0.153,-4.424 -2.154,-1.111 0.172,4.497 z"
       fill="#866d41"
       id="path186880" />
    <path
       d="m 32.62881,284.36459 0.19,4.352 v 0 l 2.748,-0.552 0.045,-4.312 -3,0.8 z"
       fill="#c1996b"
       id="path186882" />
    <path
       d="m 32.81881,288.71959 v -0.008 l 0.01,-4.121 -2.384,-1.201 0.327,4.075 z"
       fill="#866d41"
       id="path186884" />
    <path
       d="m 4.39781,266.03159 0.039,-4.013 -2.172,-1.285 0.16,4.245 z"
       fill="#c1996b"
       id="path186886" />
    <path
       d="m 4.39481,266.08459 3.064,-0.962 0.066,-4.167 -3.202,1.047 z"
       fill="#866d41"
       id="path186888" />
    <path
       d="m 34.79381,191.65459 -34.793,6.27 0.146,11.373 32.849,24.164 38.823,-8.08 v -12.271 z"
       fill="#030000"
       id="path186890" />
    <path
       d="m 1.94181,199.93959 c 0,0 3.828,2.632 9.571,6.579 2.861,1.986 6.236,4.251 9.836,6.695 1.804,1.215 3.675,2.46 5.597,3.69 1.921,1.221 3.892,2.469 5.92,3.507 0.495,0.231 1.054,0.528 1.44,0.489 0.56,-0.035 1.109,-0.114 1.686,-0.195 1.139,-0.166 2.274,-0.353 3.399,-0.543 2.25,-0.401 4.463,-0.795 6.606,-1.176 4.284,-0.777 8.282,-1.502 11.709,-2.124 6.861,-1.224 11.435,-2.039 11.435,-2.039 0,0 -1.133,0.257 -3.116,0.705 -1.986,0.431 -4.819,1.072 -8.23,1.783 -1.706,0.353 -3.555,0.736 -5.51,1.14 -1.956,0.397 -4.017,0.834 -6.157,1.235 -2.143,0.399 -4.356,0.811 -6.605,1.229 -1.128,0.201 -2.265,0.397 -3.415,0.573 -0.566,0.085 -1.166,0.176 -1.764,0.217 -0.104,0.017 -0.409,0.008 -0.545,-0.043 -0.169,-0.042 -0.319,-0.093 -0.463,-0.149 -0.293,-0.109 -0.561,-0.237 -0.832,-0.365 -2.114,-1.068 -4.051,-2.35 -5.981,-3.589 -1.919,-1.252 -3.784,-2.515 -5.581,-3.748 -3.6,-2.457 -6.878,-4.866 -9.703,-6.906 -2.823,-2.043 -5.13,-3.807 -6.759,-5.024 -1.615,-1.235 -2.538,-1.941 -2.538,-1.941"
       fill="#4d4d4d"
       id="path186892" />
    <path
       d="m 33.53681,224.74559 c 0,0 0.139,0.379 0.237,0.949 0.105,0.57 0.174,1.33 0.177,2.089 0,0.76 -0.071,1.519 -0.176,2.09 -0.099,0.569 -0.238,0.949 -0.238,0.949 0,0 -0.14,-0.38 -0.238,-0.949 -0.106,-0.571 -0.174,-1.33 -0.176,-2.09 0,-0.759 0.072,-1.519 0.177,-2.089 0.098,-0.57 0.237,-0.949 0.237,-0.949"
       fill="#4d4d4d"
       id="path186894" />
  </g>
</svg>
